<svg xmlns="http://www.w3.org/2000/svg" viewBox="0 0 733.27 301.31"><defs><style>.cls-1{fill:#d76734;}.cls-2{font-size:100px;letter-spacing:-0.03em;}.cls-2,.cls-6{fill:#fff;}.cls-2,.cls-7{font-family:Arial-BoldMT, Arial;font-weight:700;}.cls-3{letter-spacing:-0.03em;}.cls-4{letter-spacing:-0.03em;}.cls-5{letter-spacing:-0.03em;}.cls-7{font-size:110px;fill:#8fb1a9;letter-spacing:-0.07em;}.cls-8{letter-spacing:-0.07em;}.cls-9{letter-spacing:-0.07em;}.cls-10{fill:#e5e4e4;}.cls-11{fill:#1e1e1c;}</style></defs><g id="Layer_2" data-name="Layer 2"><g id="Layer_1-2" data-name="Layer 1"><path class="cls-1" d="M616.06,214.77,226.42,281.18c-10.91,1.86-19.91-6.1-20.11-17.78l-1.23-74.09c-.19-11.68,8.49-22.65,19.4-24.51L614.12,98.39c10.91-1.86,19.91,6.1,20.1,17.78l1.24,74.08C635.65,201.94,627,212.91,616.06,214.77Z"/><path class="cls-1" d="M592.11,147.76l-455.4,77.65c-12.75,2.17-23.25-7-23.45-20.53L112,119.16c-.2-13.52,10-26.24,22.72-28.41L590.09,13.1c12.75-2.17,23.25,7,23.45,20.54l1.29,85.72C615,132.87,604.86,145.59,592.11,147.76Z"/><rect class="cls-1" x="178.95" y="218.98" width="177.66" height="10" rx="5" transform="translate(-43.89 66.7) rotate(-13.13)"/><text class="cls-2" transform="translate(224.49 258.69) rotate(-2)">C<tspan x="68.56" y="-9.64">R</tspan><tspan class="cls-3" x="137.17" y="-18.89">Y</tspan><tspan class="cls-3" x="200.32" y="-27.76">P</tspan><tspan class="cls-4" x="263.52" y="-36.25">T</tspan><tspan class="cls-5" x="321" y="-45.5">O</tspan></text><circle class="cls-1" cx="62.42" cy="196.24" r="23.09"/><rect class="cls-1" x="-1.27" y="110.35" width="177.66" height="10" rx="5" transform="translate(-18.7 16.96) rotate(-10)"/><path class="cls-6" d="M568.7,110.37,97.51,190.87c-11.69,2-21.23-5.87-21.29-17.58l-.34-62.62C75.81,99,85.24,87.86,96.94,85.86L568.13,5.37c11.69-2,21.22,5.87,21.29,17.57l.34,62.62C589.82,97.27,580.39,108.38,568.7,110.37Z"/><text class="cls-7" transform="translate(85.76 178.3) rotate(-2)">F<tspan class="cls-8" x="58.65" y="-9.53">O</tspan><tspan class="cls-9" x="135.55" y="-19.91">N</tspan><tspan class="cls-9" x="206.39" y="-29.87">D</tspan><tspan class="cls-9" x="277.23" y="-39.82">U</tspan><tspan class="cls-9" x="348.07" y="-49.78">N</tspan><tspan class="cls-9" x="418.91" y="-59.73">N</tspan></text><circle class="cls-1" cx="87.56" cy="231.22" r="11.68"/><circle class="cls-1" cx="21.18" cy="189.78" r="9.14"/><circle class="cls-1" cx="52.92" cy="156.02" r="12.5"/><circle class="cls-1" cx="155.65" cy="246.72" r="12.5"/><g id="moon-full-almost"><path class="cls-10" d="M723.78,61c.16,6.14-3.09,13.71-6.83,21.52S711.66,94,706.21,98.18s-12.07,5.76-19.71,6.56-17.52.22-24.35-3.42A61.69,61.69,0,0,1,643.34,83.7c-3.93-5.86-6-16.26-6.3-25.59s5.18-17.69,10.06-23.5a65.07,65.07,0,0,1,17.68-14.33,40.64,40.64,0,0,1,15.66-3.84c6.83-.43,13.79,4.1,24.7,12.06s13.52,12.82,13.52,14.81-1.51,4.34-.38,6.25S723.63,54.86,723.78,61Z"/></g><g id="moon-full-almost-2" data-name="moon-full-almost"><path class="cls-11" d="M708.3,38.5c-.48,0-.75,1.08-.75,1.08s3.57,3.74,4,4,.48-.38.53-.75A16.32,16.32,0,0,0,708.3,38.5Zm-1.81,3.57c-.21.23-1.13.86-1,1.08s5.4,4.8,5.61,4.85.37-.2.43-.75A23.61,23.61,0,0,0,706.49,42Zm-2.12,24c-5.66,1.18-7.32,4.8-7.69,8s1,7.17,5.23,6.57,8.55-3.27,8.34-7.42S707.79,65.37,704.37,66.09Zm1,12c-2.72,1.47-5.25,1.66-6.48-.23a7.38,7.38,0,0,1,3.91-9.66,7.16,7.16,0,0,1,1.56-.46c2-.45,4.43,1.12,4.65,4.42s-1,4.6-3.66,6ZM692.46,90c-6.74,1.44-5.51,7.26-2.62,7.69A4.89,4.89,0,0,0,695.67,94a2.33,2.33,0,0,0,.05-.28,3,3,0,0,0-2.22-3.57,2.91,2.91,0,0,0-1.1,0Zm1.71,4.7c-1.06,1.81-3.7,2.46-4.6,1.18s-.64-3.69,2.72-4.55c1.82-.41,2.87,1.61,1.82,3.44Zm24.11-45.18c-1.12-1.91.38-4.27.38-6.25S716,36.45,705.14,28.48,687.28,16,680.44,16.42a40.69,40.69,0,0,0-15.66,3.84,64.88,64.88,0,0,0-17.67,14.33c-4.89,5.81-10.39,14.17-10.07,23.5s2.38,19.73,6.31,25.59a61.54,61.54,0,0,0,18.8,17.62c6.84,3.64,16.72,4.22,24.36,3.42s14.25-2.34,19.71-6.56,7-7.85,10.73-15.66,7-15.39,6.84-21.52S719.41,51.46,718.28,49.54ZM668.47,100a32.18,32.18,0,0,1-5.33-2.29c-2.08-1-3.79-2.62-3.42-2.62a9.79,9.79,0,0,1,5.93.86C667.81,97.46,669,100,668.47,100Zm46.16-39.51c.37.28,5.12,3.53,5.12,4.12a13,13,0,0,1-.47,3c-.16.16-5.83-3.69-6-3.69s-1.06.58-.75,1.13,6.36,3.74,6.36,4.22a9,9,0,0,1-1,2.79c-.15,0-5.13-4.22-5.5-4s-.86,1-.64,1.28,5.83,3.74,5.71,4.12-1,2.29-1,2.29a51.08,51.08,0,0,0-4.54-3.62c-.28,0-.86,1.13-.63,1.38A42.52,42.52,0,0,1,715.77,77c0,.43-3.62,7.74-5.33,11.21a22.56,22.56,0,0,1-8.75,9c-3.75,2.14-7.27,3.42-14.64,4a64.36,64.36,0,0,1-13.94-.43,14.83,14.83,0,0,1-2.57-.43s-2.34-5.93-5.66-6.41a39.88,39.88,0,0,0-7.41-.15,56.35,56.35,0,0,1-9.4-9.25c-3.42-4.65-7.05-15.54-7.37-20.94a35.07,35.07,0,0,1,4.7-20.83A50,50,0,0,1,679.72,19c6.22-1.14,11.81,3.57,19.23,8.55s16.09,14.48,16,15.6-1.87,3.87-.29,6.47,4.59,6.08,5,8.76a24.21,24.21,0,0,1,.33,4.65s-4.6-3.62-4.76-3.57S714.28,60.28,714.63,60.53Zm-55.47,17A51.34,51.34,0,0,0,664,84c.33.22.43-.16.65-.38s-4.12-6.41-4.12-6.84A6.69,6.69,0,0,0,659.16,77.52Zm-2.19.76c-.38-.11-1.06.48-1.18.7a41.94,41.94,0,0,0,5.56,6.63c.53,0,.32-.1.48-.48A39.16,39.16,0,0,0,657,78.28Zm-2.41,2.36c-.48,0-1.28.53-1.28.9a32.57,32.57,0,0,0,4.6,5.28,1.06,1.06,0,0,0,.9-.42c.33-.38-3.76-5.78-4.22-5.78Zm22.22-6A3.27,3.27,0,0,0,675,80.31c1.81,1.56,4.8,1.61,5.71-1.28a3.44,3.44,0,0,0-3.85-4.45Zm2.67,4A2.12,2.12,0,0,1,676.8,80a2.07,2.07,0,0,1-.94-.59,2,2,0,0,1-.2-2.89,2,2,0,0,1,1.34-.7,2.11,2.11,0,0,1,2.56,1.56,2.08,2.08,0,0,1-.06,1.21Zm-21.9-12.79c-1.18-2.19-4.24-2.07-5.5-1.61-1.61.58-2.84,3.64-2.89,5.4a3,3,0,0,0,3.38,2.67,2.57,2.57,0,0,0,.55-.12C655.21,71.76,658.73,68,657.55,65.85ZM653.23,71a2,2,0,0,1-2.58-1.32,1.83,1.83,0,0,1-.09-.39c0-1.18.86-3.23,2-3.63a3.17,3.17,0,0,1,3.71,1.08c.8,1.28-1.57,3.83-3,4.12ZM671,42.06c-2.94.37-9,1.81-9.56,7.48s2,10.69,9.83,11.39,12-5.34,10.69-12S675.55,41.48,671,42.06Zm.43,15.74c-5.25-.5-7-3.92-6.6-7.64s4.44-4.77,6.43-5c3.07-.39,6.53.17,7.35,4.64S676.63,58.26,671.4,57.8Zm-21.86-3.61c.37,0,.32-1,1.6-5.4a11.56,11.56,0,0,1,5-6.31c.22-.32-1.13-1.14-1.34-1.06-1.48.53-3.95,4.33-4.85,6.64a37.35,37.35,0,0,0-1.71,5.88A2.51,2.51,0,0,0,649.54,54.19Zm43-18.92c-4.12,1-5.26,4.94-3.55,7.06S696.05,45,696.73,41,694.83,34.71,692.54,35.27Zm2.7,5.13c-.44,2.53-3.83,2.22-5,.85s-.38-3.77,2.25-4.46c1.47-.34,3.15,1.16,2.7,3.69Z"/></g><rect class="cls-1" x="655.37" y="175.85" width="78.41" height="10" rx="5" transform="translate(-20.85 123.36) rotate(-10)"/><circle class="cls-1" cx="664.14" cy="143.52" r="11.68"/><circle class="cls-6" cx="603.15" cy="242.9" r="11.68"/><rect class="cls-6" x="475.24" y="249.58" width="78.41" height="10" rx="5" transform="translate(-36.39 93.2) rotate(-10)"/><rect class="cls-6" x="142.63" y="43.01" width="78.41" height="10" rx="5" transform="translate(-5.57 32.3) rotate(-10)"/><circle class="cls-6" cx="391.89" cy="11.68" r="11.68"/></g></g></svg>