<svg id="Layer_1" data-name="Layer 1" xmlns="http://www.w3.org/2000/svg" viewBox="0 0 245.49 250.33"><defs><style>.cls-1{fill:#e94e1b;}.cls-2{fill:#8fb1a9;}.cls-3{fill:#7e9e96;}.cls-4{fill:#839e98;}</style></defs><rect class="cls-1" y="144.4" width="29.61" height="105.93"/><rect class="cls-1" x="52.86" y="127.25" width="29.61" height="123.08"/><rect class="cls-1" x="105.73" y="106.17" width="29.61" height="144.16"/><rect class="cls-1" x="160.8" y="82.99" width="29.61" height="167.34"/><rect class="cls-1" x="215.87" y="62.21" width="29.61" height="188.12"/><polygon class="cls-2" points="139.28 76.52 20 127.25 13.69 107.91 111.71 66.22 139.28 76.52"/><polygon class="cls-2" points="190.41 21.08 111.17 50.22 87.53 58.91 87.49 58.81 81.92 44.12 184.81 6.28 190.41 21.08"/><polygon class="cls-3" points="146.12 56.97 139.45 76.57 139.29 76.52 139.28 76.52 108.3 65.98 87.54 58.91 87.58 58.79 87.63 58.92 118.27 47.48 146.12 56.97"/><polygon class="cls-4" points="193.06 30.78 181.56 0 214.91 3.57 214.91 3.57 193.06 30.78"/><polygon class="cls-2" points="192.04 28.11 181.56 0 214.91 3.57 214.91 3.57 192.04 28.11"/></svg>